<?xml version="1.0" encoding="utf-8"?>
<!-- Generator: Adobe Illustrator 25.0.0, SVG Export Plug-In . SVG Version: 6.00 Build 0)  -->
<svg version="1.1" id="Capa_1" xmlns="http://www.w3.org/2000/svg" xmlns:xlink="http://www.w3.org/1999/xlink" x="0px" y="0px"
	 viewBox="0 0 827.8 333.1" style="enable-background:new 0 0 827.8 333.1;" xml:space="preserve">
<style type="text/css">
	.st0{fill:#F26724;}
	.st1{fill:#FFFFFF;}
	.st2{fill:#DCDDDE;}
	.st3{fill:#433895;}
	.st4{fill:#00A5CC;}
</style>
<g>
	<path class="st0" d="M787.6,0H40.2C18,0,0,18,0,40.2v252.8c0,22.2,18,40.2,40.2,40.2h747.5c22.2,0,40.2-18,40.2-40.2V40.2
		C827.8,18,809.8,0,787.6,0z"/>
	<g>
		<path class="st1" d="M201.9,228.5h-28v-10.9h-0.3c-5.7,8.9-14.3,13.6-24.7,13.6c-28.2,0-40.1-25.4-40.1-51.8
			c0-24.4,12.4-47.6,37.8-47.6c11.1,0,19.5,4.3,25.6,12.9h0.3V85.3h29.4V228.5z M138.2,180.5c0,12.9,4.5,27.2,18,27.2
			c14.3,0,17.4-14.3,17.4-26.3c0-13.6-4.7-26.1-17.4-26.1C142.7,155.3,138.2,168.5,138.2,180.5z"/>
		<path class="st1" d="M253.9,131.8c27.8,0,47.3,21.5,47.3,49.8c0,28.2-19.5,49.6-47.3,49.6s-47.2-21.4-47.2-49.6
			C206.8,153.3,226.1,131.8,253.9,131.8z M253.9,207.6c13.6,0,18-14.1,18-26.1c0-12-4.3-26.3-18-26.3s-17.8,14.3-17.8,26.3
			C236.1,193.5,240.3,207.6,253.9,207.6z"/>
		<path class="st1" d="M305.8,134.5h28.5v12.9h0.3c5.4-9.6,17.4-15.6,28.2-15.6c29.9,0,32.3,22.8,32.3,36.4v60.3h-29.4V183
			c0-12.9,1.4-25.9-14.7-25.9c-11.1,0-15.9,9.8-15.9,20.1v51.2h-29.4V134.5z"/>
		<path class="st1" d="M556.2,189c0.5,12.9,7.6,21.4,20,21.4c7.1,0,14-3.4,16.8-10.3h27.5c-5.4,21.7-24.5,31.1-44.6,31.1
			c-29.2,0-49.1-18.5-49.1-50c0-28.8,21.9-49.4,48.4-49.4c32.1,0,48.2,25.4,46.8,57.2H556.2z M592.7,171.8
			c-0.5-10.5-7.6-19.2-17.4-19.2c-10.4,0-17.3,7.8-19,19.2H592.7z"/>
		<path class="st1" d="M625.9,85.3h29.4v59.5h0.3c6-8.7,14.5-13,25.6-13c25.4,0,37.8,23.2,37.8,47.6c0,26.4-11.9,51.8-40.1,51.8
			c-10.4,0-19-4.7-24.7-13.6h-0.3v10.9h-28V85.3z M654.2,180.5c0,16.5,4.5,27.2,17.8,27.2c13.1,0,17.6-14.3,17.6-27.2
			c0-12-4.5-25.2-17.5-25.2C664.2,155.3,654.2,161.1,654.2,180.5z"/>
		<polygon class="st1" points="451.8,134.5 472.4,134.5 485.2,195.3 485.5,195.3 500.5,134.5 530.3,134.5 502.3,228.5 472.6,228.5 
			460.9,176.6 		"/>
		<polygon class="st2" points="474.3,143.5 472.6,228.5 460.5,174.6 470.3,134.5 472.3,134.5 		"/>
		<polygon class="st1" points="472.3,134.5 451.7,134.5 438.9,195.3 438.6,195.3 423.6,134.5 393.9,134.5 421.8,228.5 451.6,228.5 
			463.2,176.6 		"/>
	</g>
</g>
</svg>
